<?xml version="1.0" standalone="no"?>
<!DOCTYPE svg PUBLIC "-//W3C//DTD SVG 20010904//EN"
 "http://www.w3.org/TR/2001/REC-SVG-20010904/DTD/svg10.dtd">
<svg version="1.0" xmlns="http://www.w3.org/2000/svg"
 width="500.000000pt" height="500.000000pt" viewBox="0 0 500.000000 500.000000"
 preserveAspectRatio="xMidYMid meet">
<metadata>
Created by potrace 1.11, written by Peter Selinger 2001-2013
</metadata>
<g transform="translate(0.000000,500.000000) scale(0.100000,-0.100000)"
fill="#000000" stroke="none">
<path d="M1868 3575 c-15 -9 -32 -24 -38 -35 -16 -29 -13 -2070 3 -2091 22
-28 55 -39 121 -39 58 0 69 3 98 29 l33 29 3 436 3 436 485 0 486 0 34 34 c31
31 34 40 34 90 0 67 -18 107 -55 124 -19 9 -155 12 -505 12 l-480 0 0 365 0
365 518 0 c475 0 519 2 538 18 33 26 44 56 44 116 0 47 -4 61 -29 88 l-29 33
-619 2 c-532 2 -622 0 -645 -12z"/>
</g>
</svg>
